<mxfile host="app.diagrams.net" agent="Mozilla/5.0 (Windows NT 10.0; Win64; x64) AppleWebKit/537.36 (KHTML, like Gecko) Chrome/139.0.0.0 Safari/537.36" version="28.1.1">
  <diagram name="Page-1" id="jJ-2L32scnXu585pkLCf">
    <mxGraphModel dx="937" dy="509" grid="1" gridSize="10" guides="1" tooltips="1" connect="1" arrows="1" fold="1" page="1" pageScale="1" pageWidth="850" pageHeight="1100" math="0" shadow="0">
      <root>
        <mxCell id="0" />
        <mxCell id="1" parent="0" />
        <mxCell id="nnZQ6BCGgz6hBTfk_Gb6-3" value="Frontend" style="swimlane;whiteSpace=wrap;html=1;" vertex="1" parent="1">
          <mxGeometry x="40" y="289" width="200" height="231" as="geometry" />
        </mxCell>
        <mxCell id="nnZQ6BCGgz6hBTfk_Gb6-18" value="expo" style="swimlane;fontStyle=0;childLayout=stackLayout;horizontal=1;startSize=30;horizontalStack=0;resizeParent=1;resizeParentMax=0;resizeLast=0;collapsible=1;marginBottom=0;whiteSpace=wrap;html=1;" vertex="1" parent="nnZQ6BCGgz6hBTfk_Gb6-3">
          <mxGeometry x="30" y="49.5" width="140" height="150" as="geometry" />
        </mxCell>
        <mxCell id="nnZQ6BCGgz6hBTfk_Gb6-19" value="react-native," style="text;strokeColor=none;fillColor=none;align=left;verticalAlign=middle;spacingLeft=4;spacingRight=4;overflow=hidden;points=[[0,0.5],[1,0.5]];portConstraint=eastwest;rotatable=0;whiteSpace=wrap;html=1;" vertex="1" parent="nnZQ6BCGgz6hBTfk_Gb6-18">
          <mxGeometry y="30" width="140" height="30" as="geometry" />
        </mxCell>
        <mxCell id="nnZQ6BCGgz6hBTfk_Gb6-20" value="react-navigation," style="text;strokeColor=none;fillColor=none;align=left;verticalAlign=middle;spacingLeft=4;spacingRight=4;overflow=hidden;points=[[0,0.5],[1,0.5]];portConstraint=eastwest;rotatable=0;whiteSpace=wrap;html=1;" vertex="1" parent="nnZQ6BCGgz6hBTfk_Gb6-18">
          <mxGeometry y="60" width="140" height="30" as="geometry" />
        </mxCell>
        <mxCell id="nnZQ6BCGgz6hBTfk_Gb6-77" value="expo-av," style="text;strokeColor=none;fillColor=none;align=left;verticalAlign=middle;spacingLeft=4;spacingRight=4;overflow=hidden;points=[[0,0.5],[1,0.5]];portConstraint=eastwest;rotatable=0;whiteSpace=wrap;html=1;" vertex="1" parent="nnZQ6BCGgz6hBTfk_Gb6-18">
          <mxGeometry y="90" width="140" height="30" as="geometry" />
        </mxCell>
        <mxCell id="nnZQ6BCGgz6hBTfk_Gb6-78" value="i18next..." style="text;strokeColor=none;fillColor=none;align=left;verticalAlign=middle;spacingLeft=4;spacingRight=4;overflow=hidden;points=[[0,0.5],[1,0.5]];portConstraint=eastwest;rotatable=0;whiteSpace=wrap;html=1;" vertex="1" parent="nnZQ6BCGgz6hBTfk_Gb6-18">
          <mxGeometry y="120" width="140" height="30" as="geometry" />
        </mxCell>
        <mxCell id="nnZQ6BCGgz6hBTfk_Gb6-4" value="Backend" style="swimlane;whiteSpace=wrap;html=1;" vertex="1" parent="1">
          <mxGeometry x="270" y="225" width="330" height="365" as="geometry" />
        </mxCell>
        <mxCell id="nnZQ6BCGgz6hBTfk_Gb6-23" value="Supabase" style="whiteSpace=wrap;html=1;dashed=1;" vertex="1" parent="nnZQ6BCGgz6hBTfk_Gb6-4">
          <mxGeometry x="220" y="45" width="90" height="50" as="geometry" />
        </mxCell>
        <mxCell id="nnZQ6BCGgz6hBTfk_Gb6-26" value="FastAPI" style="whiteSpace=wrap;html=1;" vertex="1" parent="nnZQ6BCGgz6hBTfk_Gb6-4">
          <mxGeometry x="20" y="45" width="60" height="305" as="geometry" />
        </mxCell>
        <mxCell id="nnZQ6BCGgz6hBTfk_Gb6-28" value="" style="endArrow=block;startArrow=block;endFill=1;startFill=1;html=1;rounded=0;exitX=1;exitY=0.5;exitDx=0;exitDy=0;entryX=-0.022;entryY=0.604;entryDx=0;entryDy=0;entryPerimeter=0;" edge="1" parent="nnZQ6BCGgz6hBTfk_Gb6-4" target="nnZQ6BCGgz6hBTfk_Gb6-75">
          <mxGeometry width="160" relative="1" as="geometry">
            <mxPoint x="80" y="75" as="sourcePoint" />
            <mxPoint x="110" y="75" as="targetPoint" />
          </mxGeometry>
        </mxCell>
        <mxCell id="nnZQ6BCGgz6hBTfk_Gb6-34" value="Audio analytics" style="swimlane;whiteSpace=wrap;html=1;" vertex="1" parent="nnZQ6BCGgz6hBTfk_Gb6-4">
          <mxGeometry x="110" y="110" width="200" height="240" as="geometry" />
        </mxCell>
        <mxCell id="nnZQ6BCGgz6hBTfk_Gb6-27" value="Whisper ASR model" style="whiteSpace=wrap;html=1;dashed=1;" vertex="1" parent="nnZQ6BCGgz6hBTfk_Gb6-34">
          <mxGeometry x="120" y="40" width="70" height="40" as="geometry" />
        </mxCell>
        <mxCell id="nnZQ6BCGgz6hBTfk_Gb6-47" style="edgeStyle=orthogonalEdgeStyle;rounded=0;orthogonalLoop=1;jettySize=auto;html=1;entryX=0;entryY=0.5;entryDx=0;entryDy=0;" edge="1" parent="nnZQ6BCGgz6hBTfk_Gb6-34" source="nnZQ6BCGgz6hBTfk_Gb6-37" target="nnZQ6BCGgz6hBTfk_Gb6-27">
          <mxGeometry relative="1" as="geometry" />
        </mxCell>
        <mxCell id="nnZQ6BCGgz6hBTfk_Gb6-37" value="Text &amp;amp;&amp;nbsp;&lt;span style=&quot;background-color: transparent; color: light-dark(rgb(0, 0, 0), rgb(255, 255, 255));&quot;&gt;Audio&lt;/span&gt;" style="rounded=1;whiteSpace=wrap;html=1;" vertex="1" parent="nnZQ6BCGgz6hBTfk_Gb6-34">
          <mxGeometry x="25" y="40" width="75" height="40" as="geometry" />
        </mxCell>
        <mxCell id="nnZQ6BCGgz6hBTfk_Gb6-62" style="edgeStyle=orthogonalEdgeStyle;rounded=0;orthogonalLoop=1;jettySize=auto;html=1;exitX=0.916;exitY=1.003;exitDx=0;exitDy=0;entryX=1;entryY=0.5;entryDx=0;entryDy=0;exitPerimeter=0;" edge="1" parent="nnZQ6BCGgz6hBTfk_Gb6-34" source="nnZQ6BCGgz6hBTfk_Gb6-48" target="nnZQ6BCGgz6hBTfk_Gb6-61">
          <mxGeometry relative="1" as="geometry" />
        </mxCell>
        <mxCell id="nnZQ6BCGgz6hBTfk_Gb6-64" style="edgeStyle=orthogonalEdgeStyle;rounded=0;orthogonalLoop=1;jettySize=auto;html=1;entryX=1;entryY=0.5;entryDx=0;entryDy=0;" edge="1" parent="nnZQ6BCGgz6hBTfk_Gb6-34" source="nnZQ6BCGgz6hBTfk_Gb6-48" target="nnZQ6BCGgz6hBTfk_Gb6-56">
          <mxGeometry relative="1" as="geometry">
            <Array as="points">
              <mxPoint x="169" y="175" />
            </Array>
          </mxGeometry>
        </mxCell>
        <mxCell id="nnZQ6BCGgz6hBTfk_Gb6-48" value="Rule-based phoneme converter" style="whiteSpace=wrap;html=1;" vertex="1" parent="nnZQ6BCGgz6hBTfk_Gb6-34">
          <mxGeometry x="10" y="100" width="180" height="40" as="geometry" />
        </mxCell>
        <mxCell id="nnZQ6BCGgz6hBTfk_Gb6-53" style="edgeStyle=orthogonalEdgeStyle;rounded=0;orthogonalLoop=1;jettySize=auto;html=1;entryX=0.806;entryY=0;entryDx=0;entryDy=0;entryPerimeter=0;" edge="1" parent="nnZQ6BCGgz6hBTfk_Gb6-34" source="nnZQ6BCGgz6hBTfk_Gb6-27" target="nnZQ6BCGgz6hBTfk_Gb6-48">
          <mxGeometry relative="1" as="geometry" />
        </mxCell>
        <mxCell id="nnZQ6BCGgz6hBTfk_Gb6-54" style="edgeStyle=orthogonalEdgeStyle;rounded=0;orthogonalLoop=1;jettySize=auto;html=1;entryX=0.292;entryY=0;entryDx=0;entryDy=0;entryPerimeter=0;" edge="1" parent="nnZQ6BCGgz6hBTfk_Gb6-34" source="nnZQ6BCGgz6hBTfk_Gb6-37" target="nnZQ6BCGgz6hBTfk_Gb6-48">
          <mxGeometry relative="1" as="geometry" />
        </mxCell>
        <mxCell id="nnZQ6BCGgz6hBTfk_Gb6-56" value="Scoring service" style="rounded=0;whiteSpace=wrap;html=1;" vertex="1" parent="nnZQ6BCGgz6hBTfk_Gb6-34">
          <mxGeometry x="40" y="160" width="97.5" height="30" as="geometry" />
        </mxCell>
        <mxCell id="nnZQ6BCGgz6hBTfk_Gb6-61" value="ChatGPT LLM&amp;nbsp;" style="whiteSpace=wrap;html=1;dashed=1;" vertex="1" parent="nnZQ6BCGgz6hBTfk_Gb6-34">
          <mxGeometry x="40" y="200" width="97.5" height="30" as="geometry" />
        </mxCell>
        <mxCell id="nnZQ6BCGgz6hBTfk_Gb6-57" style="edgeStyle=orthogonalEdgeStyle;rounded=0;orthogonalLoop=1;jettySize=auto;html=1;entryX=1.021;entryY=0.819;entryDx=0;entryDy=0;entryPerimeter=0;" edge="1" parent="nnZQ6BCGgz6hBTfk_Gb6-4" source="nnZQ6BCGgz6hBTfk_Gb6-56" target="nnZQ6BCGgz6hBTfk_Gb6-26">
          <mxGeometry relative="1" as="geometry">
            <Array as="points">
              <mxPoint x="130" y="280" />
              <mxPoint x="130" y="295" />
            </Array>
          </mxGeometry>
        </mxCell>
        <mxCell id="nnZQ6BCGgz6hBTfk_Gb6-63" style="edgeStyle=orthogonalEdgeStyle;rounded=0;orthogonalLoop=1;jettySize=auto;html=1;exitX=0;exitY=0.5;exitDx=0;exitDy=0;entryX=1.022;entryY=0.819;entryDx=0;entryDy=0;entryPerimeter=0;" edge="1" parent="nnZQ6BCGgz6hBTfk_Gb6-4" source="nnZQ6BCGgz6hBTfk_Gb6-61" target="nnZQ6BCGgz6hBTfk_Gb6-26">
          <mxGeometry relative="1" as="geometry">
            <mxPoint x="81" y="185" as="targetPoint" />
            <Array as="points">
              <mxPoint x="130" y="320" />
              <mxPoint x="130" y="295" />
            </Array>
          </mxGeometry>
        </mxCell>
        <mxCell id="nnZQ6BCGgz6hBTfk_Gb6-74" style="edgeStyle=orthogonalEdgeStyle;rounded=0;orthogonalLoop=1;jettySize=auto;html=1;entryX=-0.01;entryY=0.495;entryDx=0;entryDy=0;entryPerimeter=0;" edge="1" parent="nnZQ6BCGgz6hBTfk_Gb6-4" source="nnZQ6BCGgz6hBTfk_Gb6-26" target="nnZQ6BCGgz6hBTfk_Gb6-37">
          <mxGeometry relative="1" as="geometry">
            <Array as="points">
              <mxPoint x="108" y="170" />
            </Array>
          </mxGeometry>
        </mxCell>
        <mxCell id="nnZQ6BCGgz6hBTfk_Gb6-75" value="Supabase&lt;div&gt;SDK&lt;/div&gt;" style="whiteSpace=wrap;html=1;" vertex="1" parent="nnZQ6BCGgz6hBTfk_Gb6-4">
          <mxGeometry x="110" y="45" width="80" height="50" as="geometry" />
        </mxCell>
        <mxCell id="nnZQ6BCGgz6hBTfk_Gb6-76" value="" style="endArrow=block;startArrow=block;endFill=1;startFill=1;html=1;rounded=0;entryX=0.015;entryY=0.51;entryDx=0;entryDy=0;entryPerimeter=0;exitX=1.017;exitY=0.51;exitDx=0;exitDy=0;exitPerimeter=0;" edge="1" parent="nnZQ6BCGgz6hBTfk_Gb6-4" source="nnZQ6BCGgz6hBTfk_Gb6-75" target="nnZQ6BCGgz6hBTfk_Gb6-23">
          <mxGeometry width="160" relative="1" as="geometry">
            <mxPoint x="190" y="65" as="sourcePoint" />
            <mxPoint x="218" y="69.89999999999998" as="targetPoint" />
          </mxGeometry>
        </mxCell>
        <mxCell id="nnZQ6BCGgz6hBTfk_Gb6-5" value="Admin panel" style="swimlane;whiteSpace=wrap;html=1;" vertex="1" parent="1">
          <mxGeometry x="630" y="225" width="180" height="190" as="geometry" />
        </mxCell>
        <mxCell id="nnZQ6BCGgz6hBTfk_Gb6-65" value="react-admin" style="swimlane;fontStyle=0;childLayout=stackLayout;horizontal=1;startSize=30;horizontalStack=0;resizeParent=1;resizeParentMax=0;resizeLast=0;collapsible=1;marginBottom=0;whiteSpace=wrap;html=1;" vertex="1" parent="nnZQ6BCGgz6hBTfk_Gb6-5">
          <mxGeometry x="20" y="40" width="140" height="120" as="geometry" />
        </mxCell>
        <mxCell id="nnZQ6BCGgz6hBTfk_Gb6-66" value="ra-supabase," style="text;strokeColor=none;fillColor=none;align=left;verticalAlign=middle;spacingLeft=4;spacingRight=4;overflow=hidden;points=[[0,0.5],[1,0.5]];portConstraint=eastwest;rotatable=0;whiteSpace=wrap;html=1;" vertex="1" parent="nnZQ6BCGgz6hBTfk_Gb6-65">
          <mxGeometry y="30" width="140" height="30" as="geometry" />
        </mxCell>
        <mxCell id="nnZQ6BCGgz6hBTfk_Gb6-80" value="recharts," style="text;strokeColor=none;fillColor=none;align=left;verticalAlign=middle;spacingLeft=4;spacingRight=4;overflow=hidden;points=[[0,0.5],[1,0.5]];portConstraint=eastwest;rotatable=0;whiteSpace=wrap;html=1;" vertex="1" parent="nnZQ6BCGgz6hBTfk_Gb6-65">
          <mxGeometry y="60" width="140" height="30" as="geometry" />
        </mxCell>
        <mxCell id="nnZQ6BCGgz6hBTfk_Gb6-68" value="react-router..." style="text;strokeColor=none;fillColor=none;align=left;verticalAlign=middle;spacingLeft=4;spacingRight=4;overflow=hidden;points=[[0,0.5],[1,0.5]];portConstraint=eastwest;rotatable=0;whiteSpace=wrap;html=1;" vertex="1" parent="nnZQ6BCGgz6hBTfk_Gb6-65">
          <mxGeometry y="90" width="140" height="30" as="geometry" />
        </mxCell>
        <mxCell id="nnZQ6BCGgz6hBTfk_Gb6-2" value="" style="endArrow=block;startArrow=block;endFill=1;startFill=1;html=1;rounded=0;entryX=0;entryY=0.295;entryDx=0;entryDy=0;entryPerimeter=0;exitX=1;exitY=0.139;exitDx=0;exitDy=0;exitPerimeter=0;" edge="1" parent="1" source="nnZQ6BCGgz6hBTfk_Gb6-18" target="nnZQ6BCGgz6hBTfk_Gb6-26">
          <mxGeometry width="160" relative="1" as="geometry">
            <mxPoint x="200" y="360" as="sourcePoint" />
            <mxPoint x="340" y="359.86" as="targetPoint" />
          </mxGeometry>
        </mxCell>
        <mxCell id="nnZQ6BCGgz6hBTfk_Gb6-72" style="edgeStyle=orthogonalEdgeStyle;rounded=0;orthogonalLoop=1;jettySize=auto;html=1;entryX=-0.008;entryY=0.52;entryDx=0;entryDy=0;entryPerimeter=0;exitX=1;exitY=0.4;exitDx=0;exitDy=0;exitPerimeter=0;startArrow=classic;startFill=1;" edge="1" parent="1" source="nnZQ6BCGgz6hBTfk_Gb6-23" target="nnZQ6BCGgz6hBTfk_Gb6-66">
          <mxGeometry relative="1" as="geometry" />
        </mxCell>
      </root>
    </mxGraphModel>
  </diagram>
</mxfile>
